<?xml version="1.0" standalone="no"?>
<!DOCTYPE svg PUBLIC "-//W3C//DTD SVG 20010904//EN"
 "http://www.w3.org/TR/2001/REC-SVG-20010904/DTD/svg10.dtd">
<svg version="1.0" xmlns="http://www.w3.org/2000/svg"
 width="800.000000pt" height="450.000000pt" viewBox="0 0 800.000000 450.000000"
 preserveAspectRatio="xMidYMid meet">

<g transform="translate(0.000000,450.000000) scale(0.100000,-0.100000)"
fill="#000000" stroke="none">
<path d="M0 2250 l0 -2250 1716 0 1715 0 -36 68 c-19 37 -37 78 -40 91 -2 13
-11 34 -20 47 -21 32 -19 41 4 20 11 -10 25 -40 32 -67 7 -27 18 -49 23 -49 6
0 22 -25 36 -55 l25 -54 1001 -1 1001 0 10 45 c6 25 7 45 2 45 -4 0 -1 13 7
29 8 17 19 49 24 73 9 42 9 42 5 -13 -5 -55 -4 -56 40 -98 25 -24 45 -50 45
-58 0 -12 -3 -13 -13 -4 -14 11 -27 6 -27 -11 0 -4 551 -8 1225 -8 l1225 0 0
2250 0 2250 -4000 0 -4000 0 0 -2250z m3372 1950 c-70 -92 -114 -186 -119
-253 -4 -53 1 -77 32 -167 20 -58 38 -117 39 -131 4 -39 14 -49 52 -49 24 0
34 -4 34 -16 0 -29 -32 -84 -49 -84 -14 0 -14 -2 -1 -10 8 -5 12 -11 10 -13
-3 -2 -34 -24 -70 -49 -112 -78 -278 -263 -266 -294 3 -7 0 -16 -6 -20 -7 -5
-8 -2 -3 6 5 9 4 11 -4 6 -6 -4 -9 -12 -5 -17 3 -6 -10 -43 -29 -82 -34 -71
-137 -325 -203 -502 -18 -49 -45 -121 -59 -159 -14 -38 -24 -74 -22 -80 2 -6
-4 -20 -14 -30 -14 -15 -19 -16 -20 -5 0 8 -9 -7 -19 -33 -11 -26 -35 -69 -55
-97 -20 -28 -61 -96 -90 -153 -30 -57 -55 -100 -55 -97 0 13 40 122 109 293
122 302 219 569 311 851 76 233 89 283 95 365 32 434 142 692 357 831 82 53
96 50 50 -11z m1383 -84 c75 -75 99 -108 138 -186 52 -103 71 -181 102 -420
14 -109 29 -166 124 -450 113 -338 203 -583 340 -929 45 -112 81 -208 81 -215
0 -6 -24 32 -53 84 -28 52 -64 111 -80 131 -15 20 -39 63 -53 95 -14 32 -23
48 -20 34 5 -24 5 -24 -10 -5 -8 11 -18 31 -21 45 -9 37 -199 542 -234 623
-17 38 -29 71 -26 73 2 2 33 -63 67 -146 35 -82 66 -148 67 -146 6 6 -76 206
-129 314 -111 227 -281 398 -473 476 -30 13 -59 27 -63 31 -4 5 -1 5 6 1 14
-8 15 -1 3 22 -5 9 -11 31 -14 49 -6 35 5 43 53 43 34 0 42 10 64 85 19 66 74
165 91 165 14 0 45 53 45 78 0 36 -81 195 -121 239 l-24 26 25 -13 c14 -7 66
-54 115 -104z m-641 -103 c3 -59 5 -202 6 -318 1 -115 4 -203 7 -195 10 29 34
80 38 80 2 0 15 -11 29 -24 15 -16 20 -27 13 -31 -7 -3 3 -3 21 0 17 2 32 3
32 1 0 -3 -31 -16 -70 -31 -38 -15 -70 -31 -70 -36 0 -5 -4 -9 -10 -9 -5 0
-11 21 -12 48 -1 47 -1 47 -5 7 -3 -22 -9 -45 -15 -52 -11 -14 -139 -18 -152
-6 -4 4 -13 8 -19 8 -7 1 -38 13 -70 28 -32 15 -62 27 -67 27 -5 0 -11 4 -14
9 -4 5 3 7 14 4 11 -3 20 0 20 6 0 7 7 23 16 36 18 28 41 23 55 -11 4 -13 12
-24 17 -24 4 0 9 109 10 243 3 282 9 379 25 352 6 -12 8 -68 4 -149 -16 -318
-16 -361 -7 -321 5 22 9 67 10 100 1 95 6 105 52 105 22 0 49 5 60 11 36 19
48 -7 55 -112 3 -52 7 -96 10 -99 7 -7 -5 237 -13 278 -3 18 -3 76 1 130 9
122 22 98 29 -55z m-477 -569 c-3 -3 -12 -4 -19 -1 -8 3 -5 6 6 6 11 1 17 -2
13 -5z m788 -4 c-3 -6 1 -7 9 -4 9 3 16 1 16 -5 0 -6 8 -11 18 -11 25 0 113
-54 142 -86 l25 -29 -30 26 c-50 44 -112 69 -199 81 -69 8 -92 8 -137 -5 -29
-9 -55 -14 -57 -12 -2 2 25 12 59 23 41 13 57 21 44 24 -11 2 11 5 48 6 43 1
66 -2 62 -8z m-693 -19 c9 -3 -30 -6 -87 -6 -57 0 -102 1 -100 3 2 2 28 7 57
11 51 7 94 5 130 -8z m194 -58 c13 2 24 0 24 -4 0 -5 -8 -9 -17 -10 -16 0 -15
-2 2 -10 16 -7 14 -8 -10 -4 -16 4 -41 18 -55 32 l-25 26 29 -17 c15 -10 39
-16 52 -13z m231 13 c0 -8 -3 -14 -6 -13 -3 0 -21 -7 -39 -17 -18 -9 -39 -15
-45 -12 -7 2 -3 5 8 6 l20 1 -20 9 c-18 8 -18 9 6 9 14 1 34 8 45 16 24 18 31
19 31 1z m-182 -68 c5 4 5 2 2 -4 -10 -18 -45 -23 -51 -9 -6 16 15 26 30 14 6
-5 15 -5 19 -1z m105 -14 c0 -16 -2 -16 -24 -8 -13 5 -14 9 -5 20 13 16 29 9
29 -12z m-124 -41 c-2 -9 -8 -19 -14 -21 -8 -2 -10 13 -3 36 1 1 5 2 10 2 5 0
8 -8 7 -17z m119 7 c3 -5 0 -10 -7 -10 -10 0 -9 -3 2 -11 12 -9 11 -9 -5 -3
-11 4 -38 10 -60 13 l-40 5 45 7 c25 3 48 7 52 7 4 1 10 -2 13 -8z m-130 -60
c-3 -5 -11 -10 -16 -10 -6 0 -7 5 -4 10 3 6 11 10 16 10 6 0 7 -4 4 -10z m140
0 c3 -5 2 -10 -4 -10 -5 0 -13 5 -16 10 -3 6 -2 10 4 10 5 0 13 -4 16 -10z
m-38 -102 c14 -18 25 -68 15 -68 -4 0 -16 14 -26 31 -10 17 -21 28 -24 25 -3
-4 0 -12 6 -18 20 -20 14 -26 -33 -30 -45 -3 -46 -3 -40 22 4 14 11 31 17 37
13 17 73 17 85 1z m-218 -77 c-77 -60 -243 -121 -328 -121 -58 0 -60 1 -55 25
3 15 0 25 -7 25 -7 0 -10 3 -6 6 5 5 119 33 140 34 15 0 6 -19 -10 -23 -11 -3
-7 -5 10 -6 46 -2 206 40 230 60 12 10 28 18 36 19 8 0 4 -8 -10 -19z m379 -1
c30 -22 180 -60 227 -59 17 1 22 3 13 6 -32 8 -19 23 15 17 99 -19 100 -19
102 -42 1 -12 -2 -22 -7 -22 -5 0 -6 -4 -3 -10 10 -16 -94 -12 -153 5 -64 19
-188 78 -222 105 -33 26 -8 26 28 0z m-337 -203 c-13 -13 -15 63 -3 103 5 19
8 10 10 -34 2 -32 -2 -64 -7 -69z m269 56 c0 -36 -2 -64 -4 -62 -8 10 -13 129
-5 129 5 0 9 -30 9 -67z m-335 26 c0 -14 7 -34 15 -44 13 -15 12 -19 -9 -36
-13 -11 -28 -19 -33 -19 -10 0 8 28 27 43 7 4 6 10 -1 15 -6 4 -13 15 -17 25
-4 10 -17 17 -33 17 -15 0 -24 -3 -21 -7 4 -3 2 -13 -5 -20 -6 -8 -12 -39 -13
-69 -2 -59 -23 -92 -77 -119 -28 -13 -29 -13 -39 11 -5 14 -10 57 -11 96 l-2
70 -51 -6 -50 -6 45 21 c70 34 152 54 216 54 57 0 59 -1 59 -26z m595 2 c74
-28 95 -44 54 -39 l-31 4 -7 -84 c-6 -87 -17 -124 -30 -103 -4 6 -15 11 -25
11 -9 0 -33 16 -51 35 -27 28 -32 38 -21 44 9 6 11 21 7 47 -3 22 -5 49 -6 62
0 19 -5 22 -35 22 -29 0 -37 -5 -46 -26 -7 -21 -6 -31 6 -44 31 -34 8 -43 -25
-10 -19 19 -19 22 -5 37 10 9 14 25 11 38 -3 12 -3 25 0 28 13 12 153 -3 204
-22z m-326 -9 c22 -43 10 -111 -21 -123 -37 -14 -86 -11 -111 7 -17 12 -22 25
-22 58 0 23 6 51 14 61 12 17 17 18 41 7 17 -8 31 -9 34 -4 3 5 15 12 26 15
11 2 21 5 22 6 1 0 9 -12 17 -27z m-711 -187 c40 -110 62 -193 54 -201 -3 -3
-8 10 -12 28 -10 43 -47 158 -74 226 -23 57 -26 71 -13 57 5 -6 25 -55 45
-110z m1328 93 c-20 -50 -40 -93 -41 -84 0 16 35 106 42 106 4 0 4 -10 -1 -22z
m-907 -50 c-36 -39 -140 -177 -187 -251 -10 -16 -21 -27 -23 -24 -13 13 216
317 239 317 6 0 -7 -19 -29 -42z m472 -26 c-5 -4 -33 23 -56 53 -8 11 2 5 23
-14 20 -19 35 -36 33 -39z m-444 -4 c-11 -18 -58 -100 -105 -183 -47 -82 -93
-159 -102 -170 -24 -29 -17 -15 70 135 110 192 146 250 152 250 2 0 -4 -15
-15 -32z m452 -100 c42 -77 42 -93 1 -20 -15 26 -37 63 -48 82 -12 20 -14 29
-5 20 8 -8 32 -45 52 -82z m64 19 c53 -74 74 -107 65 -107 -7 1 -88 110 -117
158 -20 34 17 -3 52 -51z m296 -21 c-10 -31 -19 -54 -22 -52 -2 2 4 29 14 60
10 31 19 54 22 52 2 -2 -4 -29 -14 -60z m-27 -88 c-3 -8 -6 -5 -6 6 -1 11 2
17 5 13 3 -3 4 -12 1 -19z m-253 -53 c15 -27 20 -41 11 -30 -19 22 -63 106
-48 90 5 -5 22 -32 37 -60z m81 19 c9 -15 12 -23 6 -20 -11 7 -35 46 -28 46 3
0 12 -12 22 -26z m-495 -54 c0 -16 -4 -30 -8 -30 -5 0 -7 14 -4 30 2 17 6 30
8 30 2 0 4 -13 4 -30z m166 -10 c2 -19 0 -29 -6 -25 -6 3 -10 20 -10 37 0 39
11 30 16 -12z m-624 -2 c-7 -7 -12 -8 -12 -2 0 14 12 26 19 19 2 -3 -1 -11 -7
-17z m1068 7 c0 -8 -2 -15 -4 -15 -2 0 -6 7 -10 15 -3 8 -1 15 4 15 6 0 10 -7
10 -15z m-570 -29 c0 -2 -7 -7 -16 -10 -8 -3 -12 -2 -9 4 6 10 25 14 25 6z
m-145 -46 c-1 -8 -9 -14 -16 -12 -9 1 -8 -3 4 -11 23 -19 22 -27 -3 -22 -13 2
-20 -2 -20 -11 0 -9 -11 -14 -32 -15 -18 0 -55 -3 -82 -5 l-48 -6 33 41 c32
41 40 48 38 34 -7 -42 2 -53 41 -53 25 0 40 5 40 13 0 6 5 29 11 49 8 31 12
36 23 26 8 -7 12 -20 11 -28z m396 -19 c5 -22 3 -31 -5 -28 -6 2 -9 14 -8 27
2 12 -2 27 -10 32 -10 8 -10 9 2 6 8 -3 17 -19 21 -37z m-21 15 c0 -2 -7 -7
-16 -10 -8 -3 -12 -2 -9 4 6 10 25 14 25 6z m-283 -51 c-4 -8 -17 -14 -29 -14
l-23 2 23 4 c12 2 22 12 22 20 0 9 3 14 6 10 4 -3 4 -13 1 -22z m186 4 c4 -16
3 -18 -9 -8 -16 13 -19 29 -5 29 5 0 11 -9 14 -21z m245 -4 c29 -27 27 -30
-12 -15 -14 5 -26 16 -26 25 0 21 7 19 38 -10z m-823 -31 c27 -29 32 -53 13
-72 -16 -16 -28 -15 -28 3 0 8 -9 15 -20 15 -11 0 -20 -4 -20 -10 0 -18 -29
-11 -40 9 -13 26 -4 48 29 66 35 19 38 19 66 -11z m753 19 c-10 -2 -28 -2 -40
0 -13 2 -5 4 17 4 22 1 32 -1 23 -4z m283 -22 c21 -17 22 -21 11 -46 -12 -27
-13 -27 -33 -9 -20 18 -21 18 -38 -4 -13 -18 -19 -20 -29 -10 -16 16 -15 39 4
66 19 27 54 28 85 3z m-1081 -757 c40 -8 53 -26 41 -57 -5 -14 -14 -28 -19
-31 -5 -3 -38 6 -73 20 -35 14 -75 29 -87 33 -23 6 -22 8 15 28 37 21 49 22
123 7z m1141 -11 c16 -10 29 -20 29 -24 0 -7 -38 -25 -92 -45 -35 -12 -39 -12
-53 9 -22 31 -19 56 8 61 52 12 62 14 70 15 5 0 22 -7 38 -16z m863 5 c-2 -7
-27 -29 -53 -49 l-49 -36 42 -10 c37 -8 43 -7 42 6 -1 12 8 16 35 15 42 -1
158 -62 139 -74 -6 -4 44 -26 112 -50 154 -53 184 -69 228 -116 l35 -38 -40
29 c-39 29 -42 30 -210 37 -93 4 -192 12 -220 18 -27 6 -88 17 -135 25 -47 7
-119 25 -160 39 -50 18 -62 24 -35 20 75 -12 186 -20 197 -13 6 4 8 12 4 18
-11 17 -96 73 -156 103 -62 30 -46 35 45 13 l60 -14 32 31 c27 26 57 45 90 57
1 1 0 -5 -3 -11z m-2867 -57 c12 -13 24 -12 117 8 57 13 109 22 116 19 6 -2
-16 -17 -49 -33 -34 -16 -61 -31 -61 -35 0 -8 61 -30 83 -30 34 0 16 -19 -36
-38 -87 -33 -268 -69 -562 -112 -229 -33 -304 -48 -413 -83 -115 -37 -138 -48
-180 -86 -26 -24 -69 -61 -97 -81 -27 -21 -59 -47 -69 -59 -11 -11 -29 -21
-40 -21 -12 0 -39 -9 -60 -19 -21 -11 -44 -17 -52 -14 -8 3 -14 0 -14 -6 0 -6
-6 -11 -13 -11 -7 0 -31 -9 -52 -21 -41 -21 -197 -80 -202 -75 -1 1 106 54
238 117 223 106 243 117 273 159 38 53 28 48 366 170 357 129 399 147 430 180
32 34 70 46 98 31 15 -8 39 -7 92 5 l72 17 -39 39 -38 40 40 -23 c22 -12 46
-29 52 -38z m1442 50 c10 -7 8 -12 -10 -25 -18 -12 -25 -13 -31 -3 -20 31 6
50 41 28z m-719 -67 c0 -8 -4 -12 -10 -9 -5 3 -10 10 -10 16 0 5 5 9 10 9 6 0
10 -7 10 -16z m1360 12 c0 -3 -4 -8 -10 -11 -5 -3 -10 -1 -10 4 0 6 5 11 10
11 6 0 10 -2 10 -4z m-700 -96 c-20 -13 -33 -13 -25 0 3 6 14 10 23 10 15 0
15 -2 2 -10z m-180 -36 c0 -2 -7 -4 -15 -4 -8 0 -15 4 -15 10 0 5 7 7 15 4 8
-4 15 -8 15 -10z m33 -149 c9 -60 21 -111 27 -113 8 -3 7 -8 -1 -18 -8 -9 -8
-14 -1 -14 6 0 8 -9 5 -22 -4 -13 -8 -60 -10 -105 l-4 -83 31 0 c22 0 40 9 59
29 21 22 31 27 44 19 13 -7 17 -5 17 11 0 25 20 71 32 71 4 0 8 -7 8 -15 0 -8
-5 -15 -12 -15 -6 0 -8 -3 -4 -7 7 -8 11 -9 37 -12 5 0 7 -5 4 -11 -10 -15 12
-12 28 5 17 16 22 39 32 129 4 32 8 68 10 80 2 11 9 56 16 99 6 43 16 80 22
84 5 3 7 -9 3 -33 -11 -71 -26 -245 -26 -300 0 -37 4 -54 13 -54 6 0 73 18
147 40 74 22 142 40 151 40 10 0 28 24 47 63 18 35 50 85 73 110 51 58 169
120 220 115 34 -3 33 -3 -32 -35 -83 -41 -161 -110 -200 -177 -16 -28 -29 -54
-29 -57 0 -4 16 -10 35 -13 54 -10 50 -23 -10 -31 -40 -5 -58 -12 -65 -26 -6
-10 -20 -19 -31 -19 -11 0 -31 -12 -45 -26 -21 -20 -32 -24 -55 -19 -18 4 -36
2 -44 -5 -24 -20 -17 -33 13 -26 18 4 22 4 13 -3 -17 -11 -6 -31 17 -32 12 0
10 -3 -6 -9 -25 -10 -42 -46 -62 -125 -10 -40 -20 -55 -49 -73 -40 -26 -104
-78 -81 -67 8 5 29 19 47 31 34 25 78 35 55 12 -7 -7 -12 -19 -12 -28 0 -9
-11 -40 -25 -68 -14 -29 -25 -56 -25 -60 0 -14 -55 -62 -72 -62 -9 0 -18 -4
-20 -9 -1 -6 -21 -11 -44 -12 -30 -2 -41 -7 -40 -18 1 -17 -5 -17 -95 -7 -36
4 -50 1 -66 -13 -11 -11 -29 -21 -39 -24 -10 -2 8 -6 41 -7 92 -4 93 -4 102
-14 5 -5 1 -7 -9 -3 -10 4 -18 2 -18 -4 0 -7 -33 -9 -90 -8 l-90 3 31 32 c17
18 102 81 190 140 87 59 157 109 155 111 -2 2 -53 -27 -115 -65 -86 -52 -120
-68 -147 -67 -28 1 -36 -3 -41 -22 -4 -19 -10 -22 -27 -17 -23 7 -36 22 -36
42 0 6 -5 12 -11 12 -5 0 -7 -5 -3 -12 5 -7 1 -9 -13 -6 -14 4 -19 0 -19 -15
1 -30 -25 -41 -77 -33 -57 9 -63 32 -12 42 19 3 35 12 35 20 0 7 11 19 24 26
47 25 192 117 247 157 31 23 61 41 67 41 6 0 12 4 14 8 8 20 144 80 176 77 25
-2 32 1 32 14 0 10 9 26 20 36 33 30 14 29 -37 -2 -26 -16 -82 -46 -123 -66
-41 -21 -124 -69 -185 -107 -60 -39 -131 -81 -157 -95 -26 -13 -49 -29 -53
-35 -3 -5 -17 -10 -30 -10 -13 0 -26 -6 -29 -12 -4 -7 -4 2 -1 20 7 48 -11 39
-24 -13 -7 -27 -16 -43 -22 -39 -6 3 -16 -2 -24 -12 -13 -18 -14 -18 -23 6 -6
14 -17 40 -25 59 -13 31 -13 35 7 55 22 22 46 30 46 15 0 -5 -7 -9 -15 -9 -11
0 -12 -5 -5 -24 5 -15 5 -27 -3 -35 -6 -6 -8 -13 -5 -16 3 -3 17 12 31 33 14
22 51 67 82 101 45 48 63 61 86 61 16 0 29 5 29 13 0 8 2 9 8 1 8 -14 52 0 52
16 0 8 34 28 60 35 3 0 19 8 37 18 23 12 32 14 36 4 6 -18 54 8 96 52 21 22
36 31 39 23 2 -8 9 -9 21 -2 10 5 28 11 42 13 13 2 32 7 42 12 9 4 23 5 31 2
10 -4 18 5 25 25 6 17 9 33 7 35 -9 9 -36 -11 -36 -27 0 -18 -20 -25 -100 -34
-53 -7 -108 -30 -131 -55 -16 -17 -24 -20 -29 -11 -6 10 -19 8 -56 -5 -27 -10
-55 -23 -62 -29 -7 -5 -38 -20 -68 -32 -54 -22 -184 -95 -216 -122 -9 -8 -21
-11 -26 -8 -5 3 -15 -1 -22 -8 -6 -8 -29 -24 -50 -35 -52 -27 -42 -3 13 32 59
38 96 87 86 114 -7 19 -12 20 -44 13 -32 -7 -34 -6 -23 8 7 8 27 23 43 34 27
16 28 18 8 18 -12 0 -25 5 -28 10 -7 11 3 13 51 10 36 -2 47 11 46 52 0 15 4
26 9 23 5 -4 9 -12 9 -18 0 -18 40 -41 41 -25 4 38 -39 98 -70 98 -8 0 -11 -3
-8 -7 4 -3 -2 -17 -14 -29 -15 -16 -20 -32 -17 -51 4 -27 2 -29 -24 -25 l-27
4 15 37 c9 20 19 45 22 56 5 20 5 20 -16 1 -12 -11 -22 -24 -22 -29 0 -19 -50
-76 -63 -71 -12 4 -63 -53 -55 -61 2 -2 25 7 53 20 27 13 52 22 55 18 3 -3 -1
-8 -8 -10 -7 -3 -32 -15 -57 -28 -27 -15 -45 -20 -47 -13 -3 7 -14 5 -31 -7
-45 -29 -43 -8 3 37 23 23 55 66 71 95 l29 54 -32 -17 c-24 -13 -36 -14 -50
-5 -23 15 -25 14 -30 -7 -4 -13 -15 -19 -39 -20 -18 0 -42 -6 -54 -12 -24 -13
-66 -75 -68 -101 -1 -10 -4 -19 -8 -19 -3 0 -11 -12 -18 -27 -11 -24 -14 -25
-22 -11 -12 22 13 78 68 146 24 30 40 58 37 63 -3 6 0 16 6 24 11 13 4 15 -48
15 -137 0 -283 -92 -316 -199 l-14 -46 -1 43 c-1 41 3 47 83 130 l84 86 197 4
c154 4 198 7 202 18 3 8 -9 43 -26 79 -42 90 -116 162 -217 211 -70 33 -76 39
-54 44 46 12 138 -30 207 -93 62 -57 84 -90 114 -177 l27 -75 93 -6 c94 -6
135 -18 197 -59 l32 -22 0 64 c0 34 -7 126 -15 203 -17 165 -18 203 -6 190 5
-6 16 -59 24 -120z m-1223 -17 c0 -11 16 -50 36 -85 27 -49 34 -71 29 -93 -5
-24 11 -118 31 -180 13 -39 -17 11 -38 65 -27 66 -44 75 -103 51 -34 -14 -361
-19 -385 -6 -9 5 -26 33 -39 64 -13 31 -27 56 -32 56 -11 0 -11 -3 1 -35 5
-14 6 -24 1 -20 -5 3 -20 1 -33 -4 -12 -5 -26 -8 -30 -7 -4 0 -14 -8 -21 -19
-10 -14 -12 -35 -7 -73 8 -63 -2 -77 -19 -23 -20 68 -34 71 -213 38 -10 -2
-30 -14 -44 -28 -15 -13 -23 -17 -19 -9 6 11 3 10 -12 -2 -11 -10 -25 -18 -32
-18 -7 0 -10 -4 -7 -9 4 -5 -2 -8 -11 -6 -10 1 -24 -2 -30 -8 -7 -5 -13 -6
-13 -1 0 4 -15 -5 -32 -22 l-33 -29 25 28 c29 34 150 119 235 167 33 19 69 44
81 56 30 33 151 77 175 64 14 -8 40 -4 102 14 46 13 125 29 176 36 69 10 91
16 87 26 -3 8 3 16 17 19 12 2 31 6 42 8 11 3 41 5 68 6 42 1 47 -1 47 -21z
m2889 11 c34 -7 48 -15 45 -23 -4 -10 17 -17 78 -25 46 -7 124 -23 175 -37 69
-20 96 -23 111 -15 15 8 35 4 88 -16 38 -15 72 -32 77 -39 4 -7 49 -38 100
-67 235 -139 417 -317 554 -544 l31 -53 -27 15 c-15 7 -33 21 -41 30 -11 13
-10 15 6 9 15 -5 16 -4 4 4 -8 6 -18 8 -22 6 -15 -9 -30 7 -19 20 7 8 3 12
-16 14 -31 2 -55 20 -46 35 3 6 1 7 -5 3 -7 -4 -12 -3 -12 1 0 10 -62 49 -73
45 -4 -1 -24 7 -44 18 -35 19 -63 19 -33 0 12 -7 12 -12 2 -22 -8 -8 -12 -8
-12 -1 0 14 -47 10 -63 -6 -17 -17 -50 -14 -44 3 4 9 -2 17 -13 21 -10 3 -34
20 -52 38 -18 18 -32 30 -31 28 2 -2 -2 -10 -8 -18 -9 -10 -8 -18 5 -31 18
-21 21 -32 7 -32 -5 0 -12 9 -16 19 -7 22 -65 35 -80 18 -14 -16 -157 -15
-163 1 -2 7 -7 12 -11 12 -8 0 -7 -47 2 -57 4 -3 7 -13 7 -20 0 -12 -4 -11
-22 1 -30 21 -57 20 -120 -4 -28 -11 -53 -18 -55 -16 -2 2 14 21 37 43 22 22
40 47 40 56 0 19 37 47 62 47 11 0 15 5 12 15 -4 8 -1 15 5 15 16 0 14 96 -3
128 -8 15 -17 49 -21 75 -5 32 -14 51 -27 58 -20 11 -20 36 -2 97 3 9 -2 5
-10 -9 -25 -44 -63 -152 -81 -233 -16 -71 -19 -77 -39 -71 -76 23 -110 24
-176 7 -46 -13 -88 -31 -73 -31 7 -1 10 -8 7 -16 -4 -8 -10 -12 -15 -9 -5 3
-6 -2 -3 -10 3 -9 11 -13 18 -9 6 4 5 -1 -3 -10 -7 -9 -20 -17 -29 -17 -13 0
-12 -3 3 -20 9 -10 21 -18 25 -17 4 1 9 -2 9 -8 1 -5 18 -27 38 -47 43 -44 76
-49 98 -14 28 42 136 118 189 132 78 21 78 16 1 -16 -44 -19 -98 -54 -145 -94
-41 -35 -78 -62 -82 -59 -16 9 -7 -11 17 -43 14 -18 25 -37 25 -42 0 -6 6 -12
13 -15 9 -3 9 -7 -1 -19 -10 -13 -9 -15 12 -11 16 3 23 10 19 19 -3 8 1 14 11
14 24 0 30 2 43 16 7 7 36 15 65 19 53 8 88 23 88 39 0 4 -6 3 -14 -3 -18 -15
-106 -27 -106 -13 0 5 20 13 44 16 27 4 44 12 42 19 -1 7 -1 9 1 5 7 -12 33
-9 33 3 0 8 4 8 13 1 7 -6 18 -7 26 -3 7 5 22 6 33 3 11 -3 23 1 27 7 5 8 40
12 105 12 87 1 96 2 79 15 -17 14 -17 14 7 12 14 -2 25 -9 25 -18 0 -8 5 -18
10 -22 6 -4 0 -8 -12 -8 -13 0 -23 -6 -23 -13 0 -7 -14 -14 -32 -15 -32 -3
-32 -2 -13 13 18 15 18 16 2 11 -10 -3 -30 -6 -43 -6 -13 0 -24 -6 -24 -12 0
-9 -15 -12 -48 -10 -35 3 -53 -1 -65 -12 -9 -9 -32 -17 -51 -18 -23 -1 -33 -5
-29 -14 3 -9 13 -10 36 -2 18 5 49 9 70 9 23 -1 36 3 32 9 -15 24 125 -8 156
-36 19 -17 19 -18 2 -28 -10 -5 -19 -9 -20 -8 -2 1 -29 -10 -60 -24 -32 -14
-66 -23 -75 -21 -10 3 -34 -4 -55 -14 -44 -22 -61 -23 -128 -5 -53 14 -101 5
-127 -23 -11 -11 -9 -13 10 -8 14 3 42 -4 72 -19 26 -13 53 -24 58 -24 6 0 13
-4 16 -8 12 -19 -65 -5 -87 16 -30 29 -44 29 -17 0 23 -25 27 -46 5 -28 -8 7
-15 9 -15 4 0 -10 -31 -15 -116 -17 -52 -2 -65 2 -97 26 -20 15 -37 35 -37 43
0 7 -5 14 -10 14 -22 0 10 38 41 49 24 8 36 8 48 -2 14 -10 14 -10 3 5 -11 14
-10 18 5 27 16 9 16 10 -6 11 -19 0 -21 3 -12 14 14 17 9 68 -7 74 -7 2 -10
-5 -7 -17 2 -11 -1 -24 -7 -27 -18 -12 -38 27 -39 75 0 25 -3 39 -6 31 -3 -8
-13 -31 -21 -50 -9 -19 -19 -48 -22 -63 -10 -53 -22 -26 -24 58 -2 47 -6 88
-9 91 -7 7 -42 -45 -52 -76 -4 -13 -14 -30 -21 -38 -8 -7 -14 -22 -14 -33 0
-22 -15 -26 -23 -5 -3 7 7 27 23 45 37 40 52 118 25 137 -16 12 -15 14 11 20
25 6 26 8 9 14 -11 4 -47 5 -80 3 -54 -4 -58 -3 -42 10 17 14 8 35 -11 23 -4
-2 -30 -5 -57 -7 -28 -1 -56 -7 -62 -12 -9 -6 -22 -4 -39 8 -26 16 -26 16 -19
-7 6 -19 5 -21 -6 -10 -22 21 -64 14 -99 -18 -18 -16 -37 -30 -42 -30 -14 0
-9 32 8 51 15 16 13 17 -21 9 -30 -7 -43 -4 -71 15 -19 13 -31 25 -27 28 5 2
49 17 98 32 50 15 97 29 105 31 32 11 -16 24 -88 24 -65 0 -74 -3 -94 -25 -12
-14 -31 -25 -43 -25 -12 0 -25 -3 -29 -7 -14 -15 -82 -21 -94 -8 -10 10 19 24
77 36 59 12 58 34 -1 31 -98 -4 -162 -12 -171 -21 -19 -19 -47 -13 -47 9 0 24
35 40 85 40 19 0 46 5 62 11 21 8 42 7 80 -2 46 -10 55 -10 70 3 16 15 28 14
128 -4 186 -34 175 -33 193 -7 9 13 18 32 18 42 2 21 65 126 109 182 50 62 95
140 95 164 0 18 6 21 40 21 21 0 61 -5 89 -11z m732 -146 c10 -12 5 -11 -18 6
-18 12 -33 24 -33 27 0 9 37 -15 51 -33z m211 -41 c37 -19 79 -48 93 -62 l26
-27 -27 5 c-16 3 -61 27 -102 53 -40 26 -82 51 -93 54 -10 4 -17 11 -13 16 8
13 35 4 116 -39z m-112 -2 c15 -21 17 -30 8 -30 -20 1 -60 38 -53 50 10 17 23
12 45 -20z m-1675 -20 c-3 -5 -10 -10 -16 -10 -5 0 -9 5 -9 10 0 6 7 10 16 10
8 0 12 -4 9 -10z m90 1 c3 -6 -10 -7 -32 -4 -50 8 -55 13 -10 13 20 0 38 -4
42 -9z m78 -66 c21 -20 37 -44 37 -53 -1 -13 -6 -10 -21 11 -12 15 -34 34 -50
43 -16 8 -29 19 -29 24 0 20 28 9 63 -25z m232 -45 c-4 -17 -9 -29 -12 -26 -3
2 -2 19 2 36 4 17 9 29 12 26 3 -2 2 -19 -2 -36z m-1837 8 c-2 -5 -8 -9 -13
-9 -5 0 -11 4 -13 9 -1 5 4 9 13 9 9 0 14 -4 13 -9z m3367 2 c3 -5 1 -10 -4
-10 -6 0 -11 5 -11 10 0 6 2 10 4 10 3 0 8 -4 11 -10z m-3414 -17 c13 -16 12
-17 -3 -4 -10 7 -18 15 -18 17 0 8 8 3 21 -13z m-32 -22 c-3 -6 -10 -7 -18 -2
-7 5 -10 14 -6 21 9 14 29 -2 24 -19z m-1149 -11 c-8 -5 -19 -10 -25 -10 -5 0
-3 5 5 10 8 5 20 10 25 10 6 0 3 -5 -5 -10z m117 -46 c-3 -3 -20 -1 -38 5 -32
9 -32 9 -7 10 15 1 30 7 35 14 5 9 9 7 11 -6 2 -10 2 -21 -1 -23z m183 -14 c8
-15 6 -17 -23 -11 -18 4 -50 4 -72 0 -22 -4 -48 -3 -58 3 -18 9 -18 19 0 20 4
0 18 9 31 18 21 17 26 17 68 3 24 -8 49 -23 54 -33z m1010 46 c0 -3 -4 -8 -10
-11 -5 -3 -10 -1 -10 4 0 6 5 11 10 11 6 0 10 -2 10 -4z m-2310 -42 c0 -7
-153 -79 -162 -76 -5 1 -8 -15 -9 -35 0 -37 0 -38 -15 -16 -14 20 -18 21 -37
9 -24 -15 -157 -49 -164 -43 -2 2 31 18 74 35 43 18 130 54 193 81 63 27 116
49 118 50 1 1 2 -2 2 -5z m795 -4 c-3 -5 -12 -10 -18 -10 -7 0 -6 4 3 10 19
12 23 12 15 0z m-35 -14 c0 -2 -9 -6 -20 -9 -11 -3 -18 -1 -14 4 5 9 34 13 34
5z m653 -60 c40 -16 87 -70 87 -99 0 -11 15 -33 33 -48 25 -23 29 -30 18 -38
-7 -5 -11 -13 -7 -19 3 -5 -6 -22 -20 -37 l-25 -28 -16 23 c-10 14 -19 18 -25
12 -14 -14 -38 -4 -38 17 -1 12 -5 11 -20 -8 -23 -27 -25 -53 -8 -81 15 -23 1
-55 -23 -55 -25 -1 -28 18 -7 37 l21 18 -24 0 c-14 0 -30 -5 -36 -11 -16 -16
-33 -2 -33 25 0 22 69 90 135 132 37 23 55 40 55 51 0 4 -14 21 -30 37 -17 16
-30 33 -30 38 0 4 -7 8 -15 8 -8 0 -19 9 -25 20 -13 24 -10 24 33 6z m988 -13
c-13 -26 -60 -67 -67 -60 -10 9 10 37 42 58 36 23 37 23 25 2z m-1417 -1 c2
-4 -7 -9 -22 -10 -21 -1 -24 0 -12 8 18 12 27 12 34 2z m2691 -1 c6 -11 -33
-26 -43 -16 -4 3 0 10 8 15 19 12 27 12 35 1z m-2762 -8 c-7 -2 -21 -2 -30 0
-10 3 -4 5 12 5 17 0 24 -2 18 -5z m-80 -10 c-7 -2 -19 -2 -25 0 -7 3 -2 5 12
5 14 0 19 -2 13 -5z m2747 3 c0 -3 -4 -8 -10 -11 -5 -3 -10 -1 -10 4 0 6 5 11
10 11 6 0 10 -2 10 -4z m-1639 -41 c21 3 58 7 82 9 41 4 42 4 10 -6 -18 -6
-33 -17 -33 -25 0 -8 5 -11 10 -8 6 3 10 1 10 -4 0 -6 6 -11 14 -11 15 0 32
-37 23 -47 -12 -11 -48 9 -45 25 2 10 -7 22 -21 30 -26 14 -61 8 -61 -11 0 -7
-7 -3 -15 7 -12 16 -18 17 -27 8 -7 -7 -9 -13 -5 -13 4 -1 10 -2 15 -3 20 -4
32 -19 32 -41 0 -20 -7 -25 -42 -33 -28 -6 -50 -5 -63 2 -11 6 -23 9 -27 8
-13 -3 -1 50 13 59 23 14 2 10 -40 -8 -37 -16 -39 -19 -44 -73 -2 -31 -14 -74
-25 -96 l-20 -39 -12 30 c-6 17 -18 43 -26 59 -8 16 -11 38 -8 49 4 13 2 17
-5 13 -6 -4 -11 -17 -11 -30 0 -12 -5 -27 -10 -32 -6 -6 -16 -50 -23 -98 -11
-76 -15 -86 -26 -72 -8 9 -16 30 -20 48 -6 27 -8 29 -21 17 -8 -8 -28 -15 -43
-17 -28 -4 -28 -3 -12 21 14 22 35 37 55 41 13 3 31 19 40 36 8 16 8 18 -5 14
-24 -9 6 54 47 98 38 42 73 58 125 58 63 0 152 30 160 54 7 21 7 21 11 -2 3
-19 8 -21 43 -17z m384 25 c-3 -5 -21 -12 -40 -16 -34 -6 -39 -14 -36 -54 0
-10 -1 -11 -5 -2 -7 14 -44 16 -44 2 0 -5 -5 -10 -12 -10 -6 0 -8 3 -5 7 4 3
2 12 -4 19 -13 16 25 44 61 44 14 0 32 5 40 10 19 13 53 13 45 0z m1481 -12
c4 -6 2 -14 -5 -16 -7 -2 -21 -13 -32 -25 l-19 -21 0 30 c0 17 3 34 7 37 11
11 41 8 49 -5z m-2731 -8 c-3 -5 -11 -10 -16 -10 -6 0 -7 5 -4 10 3 6 11 10
16 10 6 0 7 -4 4 -10z m1050 0 c3 -5 1 -10 -4 -10 -6 0 -11 5 -11 10 0 6 2 10
4 10 3 0 8 -4 11 -10z m1495 6 c0 -3 -4 -8 -10 -11 -5 -3 -10 -1 -10 4 0 6 5
11 10 11 6 0 10 -2 10 -4z m112 -8 c-6 -6 -35 -13 -64 -15 -31 -2 -48 1 -42 6
12 12 40 18 84 20 26 1 31 -2 22 -11z m113 -17 c5 -9 -39 -61 -50 -61 -12 0
-3 40 11 54 18 18 30 20 39 7z m375 1 c0 -7 -83 -37 -105 -37 -5 0 -14 -3 -20
-7 -5 -3 -26 -9 -45 -13 -19 -3 -54 -15 -77 -26 -44 -20 -83 -25 -83 -11 0 15
111 55 214 78 120 27 116 26 116 16z m30 4 c0 -3 -4 -8 -10 -11 -5 -3 -10 -1
-10 4 0 6 5 11 10 11 6 0 10 -2 10 -4z m-3215 -16 c-3 -5 -15 -10 -26 -10 -10
0 -19 5 -19 10 0 6 12 10 26 10 14 0 23 -4 19 -10z m399 -8 c15 -18 13 -21
-40 -61 -43 -32 -63 -41 -80 -37 -19 5 -24 2 -24 -14 0 -22 -15 -27 -24 -7 -3
8 -19 -3 -43 -29 -26 -28 -45 -41 -60 -39 -27 2 -26 4 -13 -30 9 -24 6 -31
-30 -67 -22 -23 -43 -38 -46 -35 -3 3 9 36 28 74 35 71 165 215 224 246 40 22
87 21 108 -1z m-483 -10 c-13 -9 -50 -43 -82 -74 -32 -32 -61 -53 -64 -48 -10
17 131 141 159 140 6 -1 0 -9 -13 -18z m264 6 c29 -13 34 -31 7 -26 -11 2 -26
-3 -36 -11 -14 -12 -16 -12 -10 3 5 12 2 17 -7 16 -28 -4 -39 0 -39 15 0 18
48 20 85 3z m1085 -9 c-7 -11 -14 -18 -17 -15 -3 3 0 12 7 21 18 21 23 19 10
-6z m-1902 -6 c5 -10 7 -24 4 -32 -3 -8 0 -11 7 -7 30 19 4 -15 -58 -73 -74
-72 -148 -178 -181 -261 -17 -43 -70 -124 -70 -108 0 15 52 152 73 193 49 96
190 302 209 304 4 1 11 -7 16 -16z m427 7 c3 -5 -1 -10 -9 -10 -8 0 -18 5 -21
10 -3 6 1 10 9 10 8 0 18 -4 21 -10z m2805 -5 c16 -9 19 -14 9 -15 -8 0 -24 7
-35 15 -24 18 -7 19 26 0z m-4130 -5 c-8 -5 -22 -9 -30 -9 -10 0 -8 3 5 9 27
12 43 12 25 0z m1620 -6 c11 -13 10 -19 -8 -37 l-22 -21 0 37 c0 40 10 46 30
21z m3225 6 c-3 -5 -10 -10 -16 -10 -5 0 -9 5 -9 10 0 6 7 10 16 10 8 0 12 -4
9 -10z m-445 -20 c-20 -13 -50 -13 -50 0 0 6 15 10 33 10 24 0 28 -3 17 -10z
m291 -13 c-10 -9 -11 -8 -5 6 3 10 9 15 12 12 3 -3 0 -11 -7 -18z m-1925 -24
c-10 -10 -19 5 -10 18 6 11 8 11 12 0 2 -7 1 -15 -2 -18z m172 -1 c6 -18 -15
-14 -22 4 -4 10 -1 14 6 12 6 -2 14 -10 16 -16z m1554 -12 c-37 -23 -42 -24
-42 -10 0 6 7 10 15 10 8 0 15 5 15 10 0 6 10 10 23 10 19 0 18 -2 -11 -20z
m83 0 c-10 -11 -22 -17 -28 -13 -6 4 -3 12 8 20 28 20 41 16 20 -7z m-3105 5
c0 -10 -63 -75 -73 -75 -6 0 7 18 28 40 38 39 45 45 45 35z m1550 -44 c0 -11
-3 -11 -17 0 -17 13 -17 13 0 -13 20 -33 24 -83 4 -57 -7 8 -20 18 -30 22 -25
9 -20 73 6 71 9 -1 17 3 17 10 0 16 20 -16 20 -33z m2897 33 c-3 -3 -12 -4
-19 -1 -8 3 -5 6 6 6 11 1 17 -2 13 -5z m-4353 -56 c-9 -18 -19 -28 -21 -21
-5 13 27 67 34 59 3 -2 -3 -19 -13 -38z m3182 -8 c0 -25 -6 -40 -13 -40 -16 0
-17 22 -1 38 9 9 9 12 -1 12 -11 0 -11 3 -1 15 17 21 18 20 16 -25z m1054 11
c41 -16 76 -34 78 -39 5 -17 -18 -24 -24 -8 -3 9 -12 16 -18 16 -7 0 -31 9
-54 20 -22 11 -50 20 -62 20 -11 0 -20 5 -20 10 0 16 20 12 100 -19z m-1147 0
c-6 -23 -41 -57 -49 -48 -5 4 42 63 53 67 0 0 -1 -9 -4 -19z m-3373 -24 c0
-18 -2 -19 -10 -7 -13 20 -13 43 0 35 6 -3 10 -16 10 -28z m660 23 c0 -5 -4
-10 -9 -10 -6 0 -13 5 -16 10 -3 6 1 10 9 10 9 0 16 -4 16 -10z m4010 1 c0
-14 -18 -23 -30 -16 -6 4 -8 11 -5 16 8 12 35 12 35 0z m-3047 -54 c9 -11 15
-22 12 -25 -5 -5 -85 45 -85 53 0 12 57 -10 73 -28z m-1503 10 c0 -21 -39 -57
-60 -57 -16 0 -13 6 18 35 43 40 42 39 42 22z m130 -3 c0 -8 -4 -12 -10 -9 -5
3 -10 10 -10 16 0 5 5 9 10 9 6 0 10 -7 10 -16z m1520 -6 c0 -16 -3 -19 -11
-11 -6 6 -8 16 -5 22 11 17 16 13 16 -11z m-1115 2 c-3 -5 -12 -10 -18 -10 -7
0 -6 4 3 10 19 12 23 12 15 0z m2740 -20 c-3 -5 -13 -10 -21 -10 -8 0 -14 -4
-14 -8 0 -4 24 -9 53 -10 91 -5 97 -6 86 -17 -10 -10 -31 -13 -90 -15 -15 -1
-36 -10 -48 -22 -20 -18 -31 -19 -124 -14 -56 4 -129 7 -162 7 -45 0 -55 3
-42 10 9 6 21 8 26 4 5 -3 12 -1 16 5 4 7 12 7 25 0 15 -8 20 -6 25 9 3 11 13
25 23 33 16 12 16 11 2 -6 -14 -18 -14 -19 8 -7 12 6 28 9 34 5 7 -4 8 -3 4 4
-4 7 -1 12 8 12 9 0 17 1 19 1 5 3 143 27 160 28 10 0 15 -3 12 -9z m-1580
-19 c-3 -6 -11 -11 -17 -11 -6 0 -6 6 2 15 14 17 26 13 15 -4z m3015 -37 c0
-12 -46 17 -48 30 -3 14 1 13 22 -5 14 -12 26 -24 26 -25z m-3225 26 c3 -5 2
-10 -4 -10 -5 0 -13 5 -16 10 -3 6 -2 10 4 10 5 0 13 -4 16 -10z m-601 -59
c-9 -9 -46 37 -39 49 5 8 13 3 26 -16 10 -16 16 -30 13 -33z m786 29 c8 -5 12
-11 10 -13 -8 -8 -70 5 -70 14 0 12 41 11 60 -1z m1127 -32 c-18 -4 -36 -2
-41 3 -10 9 11 14 42 10 6 -1 12 4 12 11 0 9 3 9 10 -2 7 -12 3 -16 -23 -22z
m553 24 c0 -4 -10 -13 -22 -21 -23 -14 -23 -14 -4 8 20 22 26 25 26 13z m1170
-2 c13 -8 13 -10 -2 -10 -9 0 -20 5 -23 10 -8 13 5 13 25 0z m67 -6 c2 -7 -6
-10 -21 -7 -14 3 -23 10 -20 15 8 12 36 6 41 -8z m-244 -13 c15 -8 27 -18 27
-23 0 -14 -14 -9 -45 18 -31 26 -28 27 18 5z m542 9 c3 -5 1 -10 -4 -10 -6 0
-11 5 -11 10 0 6 2 10 4 10 3 0 8 -4 11 -10z m-1998 -6 c-3 -3 -12 -4 -19 -1
-8 3 -5 6 6 6 11 1 17 -2 13 -5z m1416 -29 c37 -26 43 -39 29 -62 -17 -28 -69
11 -86 65 -10 30 9 29 57 -3z m110 -2 c-7 -3 -9 -12 -6 -21 6 -15 5 -15 -11
-2 -12 9 -14 16 -7 18 9 3 8 8 -1 20 -12 14 -10 14 12 2 14 -7 20 -15 13 -17z
m-1615 -16 c-7 -15 -12 -16 -18 -7 -4 7 -14 16 -21 21 -10 6 -4 8 18 7 28 -2
30 -4 21 -21z m1379 12 c30 -11 73 -47 73 -61 0 -4 -11 -8 -25 -8 -17 0 -25 6
-26 18 -1 16 -2 16 -6 0 -6 -25 -15 -23 -54 12 -38 33 -33 38 14 13 30 -15 31
-15 18 0 -7 10 -19 17 -27 17 -7 0 -16 5 -19 10 -8 13 16 13 52 -1z m-3261
-75 c-3 -8 -10 -14 -15 -14 -6 0 -7 7 -4 17 5 12 3 14 -8 8 -8 -5 -5 2 6 14
17 20 20 21 23 7 2 -10 1 -24 -2 -32z m955 25 c48 -24 47 -33 -2 -17 -19 6
-40 12 -46 14 -16 4 -17 24 -3 24 6 0 29 -9 51 -21z m2211 -1 c-12 -12 -35 -1
-27 12 3 5 13 6 21 3 10 -4 12 -9 6 -15z m-3427 -25 c-9 -50 -22 -63 -30 -30
-7 27 9 67 26 67 7 0 9 -13 4 -37z m175 23 c9 -12 8 -15 -7 -14 -10 0 -22 0
-28 -2 -5 -1 -21 -2 -34 -1 -20 1 -21 3 -11 16 16 19 64 19 80 1z m-1020 -6
c0 -5 -4 -10 -10 -10 -5 0 -10 5 -10 10 0 6 5 10 10 10 6 0 10 -4 10 -10z
m2185 0 c3 -5 1 -10 -4 -10 -6 0 -11 5 -11 10 0 6 2 10 4 10 3 0 8 -4 11 -10z
m1902 -25 c12 -4 24 -14 27 -22 5 -12 0 -14 -23 -11 -26 4 -30 1 -28 -16 3
-30 -30 -28 -171 10 -11 3 -11 6 0 18 7 8 15 12 17 10 2 -2 10 1 18 7 10 9 13
8 13 -1 0 -9 3 -10 14 -1 7 6 21 9 30 5 9 -3 16 -2 16 3 0 11 53 10 87 -2z
m123 -2 c8 -3 21 -7 29 -9 19 -4 34 -21 28 -31 -3 -5 -22 -10 -42 -11 -28 -2
-43 3 -62 23 -14 14 -30 25 -34 25 -5 0 -9 4 -9 9 0 9 65 5 90 -6z m106 6 c39
-14 113 -62 114 -73 0 -4 -8 -5 -17 -1 -25 11 -57 8 -61 -5 -5 -15 -22 -12
-22 5 0 8 -15 26 -34 42 -48 37 -37 54 20 32z m523 2 c9 -6 10 -10 2 -16 -16
-9 -44 2 -36 15 8 12 16 12 34 1z m-4559 -17 c0 -8 -5 -12 -10 -9 -6 4 -8 11
-5 16 9 14 15 11 15 -7z m4468 -12 c8 -12 10 -22 4 -22 -5 0 -17 12 -27 26
-11 17 -13 25 -4 22 7 -2 19 -14 27 -26z m-2458 8 c0 -5 -4 -10 -10 -10 -5 0
-10 5 -10 10 0 6 5 10 10 10 6 0 10 -4 10 -10z m2410 -12 c0 -6 -6 -5 -15 2
-8 7 -15 14 -15 16 0 2 7 1 15 -2 8 -4 15 -11 15 -16z m-1443 6 c-3 -3 -12 -4
-19 -1 -8 3 -5 6 6 6 11 1 17 -2 13 -5z m1352 -50 c12 -15 21 -32 21 -39 0
-12 -45 27 -85 74 l-20 24 32 -16 c17 -9 41 -29 52 -43z m-4279 38 c0 -12 -39
-47 -45 -41 -11 12 9 49 26 49 11 0 19 -4 19 -8z m3275 -2 c3 -5 1 -10 -4 -10
-6 0 -11 5 -11 10 0 6 2 10 4 10 3 0 8 -4 11 -10z m885 0 c0 -5 -4 -10 -9 -10
-6 0 -13 5 -16 10 -3 6 1 10 9 10 9 0 16 -4 16 -10z"/>
<path d="M2970 3039 c-12 -23 -20 -43 -18 -45 3 -2 14 17 26 41 27 56 20 60
-8 4z"/>
<path d="M2922 2945 c-17 -37 -14 -45 4 -12 9 16 14 31 11 33 -2 2 -9 -7 -15
-21z"/>
<path d="M2896 2885 c-9 -26 -7 -32 5 -12 6 10 9 21 6 23 -2 3 -7 -2 -11 -11z"/>
<path d="M2866 2810 c-22 -56 -19 -65 5 -11 11 24 18 46 15 48 -2 2 -11 -14
-20 -37z"/>
<path d="M5180 2685 c0 -5 5 -17 10 -25 5 -8 10 -10 10 -5 0 6 -5 17 -10 25
-5 8 -10 11 -10 5z"/>
<path d="M5210 2605 c0 -5 5 -17 10 -25 5 -8 10 -10 10 -5 0 6 -5 17 -10 25
-5 8 -10 11 -10 5z"/>
<path d="M5240 2525 c0 -5 5 -17 10 -25 5 -8 10 -10 10 -5 0 6 -5 17 -10 25
-5 8 -10 11 -10 5z"/>
<path d="M3902 3560 c0 -14 2 -19 5 -12 2 6 2 18 0 25 -3 6 -5 1 -5 -13z"/>
<path d="M4378 3433 c7 -3 16 -2 19 1 4 3 -2 6 -13 5 -11 0 -14 -3 -6 -6z"/>
<path d="M3981 3074 c0 -11 3 -14 6 -6 3 7 2 16 -1 19 -3 4 -6 -2 -5 -13z"/>
<path d="M3735 800 c3 -5 8 -10 11 -10 2 0 4 5 4 10 0 6 -5 10 -11 10 -5 0 -7
-4 -4 -10z"/>
<path d="M4315 790 c-3 -5 3 -10 15 -10 12 0 18 5 15 10 -3 6 -10 10 -15 10
-5 0 -12 -4 -15 -10z"/>
<path d="M3754 578 c0 -18 -4 -33 -10 -33 -6 0 -18 -8 -28 -17 -10 -10 -21
-18 -26 -18 -5 0 -4 -15 2 -32 l12 -33 12 30 c7 17 16 30 21 29 9 0 34 30 53
65 10 19 10 25 -1 32 -26 16 -37 9 -35 -23z"/>
<path d="M5320 620 c-18 -12 -2 -12 25 0 13 6 15 9 5 9 -8 0 -22 -4 -30 -9z"/>
<path d="M5820 339 c-24 -20 -24 -21 -3 -16 13 3 26 1 29 -4 3 -5 -10 -9 -28
-9 -19 0 -43 -7 -54 -15 -18 -14 -16 -15 21 -9 22 4 49 9 60 10 11 1 22 3 25
4 3 1 21 2 40 1 l35 0 -27 10 c-16 6 -28 15 -28 20 0 5 -9 9 -21 9 -11 0 -17
5 -14 10 10 17 -9 11 -35 -11z"/>
<path d="M5958 303 c7 -3 16 -2 19 1 4 3 -2 6 -13 5 -11 0 -14 -3 -6 -6z"/>
<path d="M2637 513 c-4 -3 -7 -11 -7 -17 0 -6 5 -5 12 2 6 6 9 14 7 17 -3 3
-9 2 -12 -2z"/>
<path d="M5125 290 c-3 -6 1 -7 9 -4 18 7 21 14 7 14 -6 0 -13 -4 -16 -10z"/>
<path d="M5012 278 c-10 -13 -4 -15 44 -17 32 -1 60 -4 64 -6 4 -3 13 1 19 9
10 12 2 14 -49 13 -33 -1 -61 2 -63 7 -1 4 -8 2 -15 -6z"/>
<path d="M5508 48 c4 -16 2 -20 -10 -15 -11 4 -18 -1 -21 -14 -4 -16 0 -19 28
-19 39 0 48 16 27 48 -18 28 -32 29 -24 0z"/>
</g>
</svg>
